<svg version="1.2" xmlns="http://www.w3.org/2000/svg" viewBox="0 0 200 50" width="200" height="50">
	<title>New Project</title>
	<style>
		.s0 { fill: #000000 } 
	</style>
	<path id="metal zone" class="s0" aria-label="metal zone"  d="m10.9 34h-5.1q-1.7 0-2.2-0.5-0.6-0.5-0.6-2.3v-11.5q0.8-0.3 2-0.4 1.1-0.2 2.5-0.3 1.3-0.1 2.5-0.1 1.3-0.1 2.1-0.1 1.7 0 2.9 0.2 1.2 0.3 2 1 0.9 0.7 1.5 2.3h-1q0.3-1.3 1.1-1.9 0.7-0.8 1.6-1.1 1-0.3 1.8-0.4 0.9-0.1 1.5-0.1 3 0 4.8 0.5 1.7 0.4 2.5 1.7 0.7 1.3 0.7 3.7v6.8q0 1.7-0.5 2.1-0.6 0.4-2.2 0.4h-5.1q0-2.4 0-4.8 0-2.4 0-4.8-0.1-1.3-0.5-1.6-0.3-0.4-1-0.4-0.4 0-0.6 0.1-0.2 0.1-0.3 0.3-0.1 0.2-0.1 0.5v10.7h-7.9v-9.6q0-1.2-0.3-1.5-0.3-0.4-1.2-0.4-0.3 0-0.6 0.1-0.2 0-0.2 0.2-0.1 0.1-0.1 0.4zm32.2 0.2q-3 0-4.9-0.3-1.8-0.3-2.9-1.1-1-0.8-1.5-2.2-0.4-1.4-0.4-3.7 0-3.1 0.9-4.8 1-1.8 3.3-2.6 2.3-0.7 6.4-0.7 3.2 0 5.1 0.6 1.9 0.5 2.7 1.8 0.8 1.2 0.8 3.2v3.5h-10.4q0-1.1 0.4-1.8 0.5-0.7 1.7-0.7h1.3v-0.6q0-1-0.4-1.5-0.3-0.6-1.6-0.6-0.9 0-1.4 0.3-0.5 0.3-0.7 1.2-0.2 0.8-0.2 2.6 0 1.3 0.3 2 0.2 0.6 1 0.8 0.7 0.2 2.3 0.2 0.6 0 1.8 0 1.2 0 2.5 0 1.4-0.1 2.4-0.1 0.9-0.1 1.1-0.1v0.9q0 0.7-0.2 1.5-0.1 0.7-0.5 1.1-0.6 0.7-2.7 0.9-2.1 0.2-6.2 0.2zm19.2-0.1q-2.7 0-4.1-0.5-1.4-0.5-2-1.6-0.6-1.2-0.6-3.3v-5.9h-1.7v-4h1.7v-1.4q0-1.2 0.2-1.7 0.2-0.6 0.7-0.8 0.6-0.1 1.8-0.1h5.2q0 0.2 0 0.4 0 0.2 0 0.5v3.1h3.8v4h-3.8v5.4q0 1.5 0.3 2.2 0.3 0.8 1.7 0.8 0.3 0 0.9-0.1 0.6-0.1 0.9-0.2v2.8q-0.3 0-1.7 0.2-1.3 0.2-3.3 0.2zm16 0q-3 0-4.8-0.1-1.8-0.1-2.8-0.6-1-0.5-1.3-1.4-0.4-0.9-0.4-2.4 0-1.9 0.4-2.9 0.3-1.1 1.1-1.4 0.9-0.4 2.2-0.4 1 0 2.3 0 1.3 0 2.6 0.1 1.3 0 2.3 0 1 0.1 1.3 0.2 0-0.7-0.1-1.2-0.1-0.4-0.5-0.7-0.3-0.3-1-0.3-0.6-0.2-1.6-0.2-1.3 0-2.7 0.1-1.4 0-2.7 0-1.4 0.1-2.7 0.1v-1.5q0-1.1 0.4-1.7 0.4-0.7 1.4-0.8 1-0.2 2.9-0.3 2-0.1 4.4 0 3 0 5 0.3 1.9 0.2 3 1 1 0.7 1.4 2.2 0.4 1.4 0.4 3.6v7.4q-0.9 0.5-3.7 0.7-2.9 0.2-6.8 0.2zm-0.1-3.1q0.5 0 1.1 0 0.5-0.1 1-0.1 0.6 0 0.9-0.1v-3.3q-0.4-0.1-1-0.1-0.6 0-1.2 0-0.5-0.1-0.8-0.1-0.4 0-0.6 0.2-0.3 0.1-0.4 0.5-0.1 0.3-0.1 1.1 0 0.7 0.1 1.1 0.1 0.5 0.3 0.6 0.3 0.2 0.7 0.2zm19.1 3.2q-3.3 0-4.8-1-1.5-1-1.5-3.5v-12.3q0-1.1 0.2-1.7 0.2-0.5 0.8-0.7 0.6-0.2 1.8-0.2h5.2q-0.1 0.2-0.1 1.1-0.1 0.9-0.1 1.9v11.1q0 1.3 0.3 1.8 0.4 0.5 1.4 0.5 0.4 0 0.7-0.1 0.3-0.1 0.4-0.1v2.7q-0.3 0-1.2 0.3-0.9 0.2-3.1 0.2zm31.6-9.7l-5 5.4h8.1v1.7q0 1.4-0.6 1.9-0.5 0.5-2 0.5h-15.6v-3.7l7-7.4h-6.7v-2q0-1 0.5-1.5 0.6-0.6 1.2-0.6h15.7q0.3 0.8-0.2 1.9-0.4 1.1-1.1 2.1-0.7 1.1-1.3 1.7zm14.4 9.7q-2.5 0-4.4-0.3-1.8-0.3-3-1.2-1.2-0.9-1.8-2.4-0.6-1.5-0.6-3.9 0-2.3 0.6-3.9 0.6-1.5 1.8-2.4 1.2-0.8 3-1.2 1.9-0.3 4.4-0.3 2.5 0 4.4 0.3 1.8 0.4 3 1.2 1.1 0.9 1.7 2.4 0.6 1.6 0.6 3.9 0 2.4-0.6 3.9-0.6 1.5-1.8 2.4-1.2 0.9-3 1.2-1.8 0.3-4.3 0.3zm0-3.7q0.7 0 1.1-0.4 0.4-0.3 0.5-1.2 0.2-0.9 0.2-2.5 0-1.6-0.2-2.5-0.1-0.9-0.5-1.2-0.4-0.4-1.1-0.4-0.6 0-1.1 0.4-0.4 0.3-0.6 1.2-0.2 0.9-0.2 2.5 0 1.6 0.2 2.5 0.2 0.9 0.6 1.2 0.5 0.4 1.1 0.4zm19.7 3.5h-5.9q-1.9 0-1.9-2v-12.4q1.2-0.3 3.8-0.6 2.6-0.3 5.6-0.3 3.5 0 5.4 0.4 1.9 0.3 2.8 1.2 1 0.9 1.2 2.4 0.3 1.5 0.3 3.9v4.5q0 1.2-0.2 1.8-0.1 0.6-0.8 0.9-0.6 0.2-2 0.2h-4.9v-9.3q0-1.1-0.6-1.4-0.6-0.4-1.1-0.4-0.3 0-0.6 0.1-0.3 0-0.6 0.1-0.3 0.1-0.5 0.2zm22.8 0.2q-3 0-4.9-0.3-1.8-0.3-2.9-1-1-0.8-1.4-2.3-0.4-1.4-0.4-3.6 0-3.1 0.9-4.9 0.9-1.7 3.2-2.5 2.3-0.8 6.4-0.8 3.2 0 5.1 0.6 1.9 0.6 2.7 1.9 0.8 1.2 0.8 3.1v3.5h-10.4q0-1.1 0.5-1.7 0.4-0.8 1.7-0.8h1.3v-0.6q0-1-0.4-1.5-0.4-0.6-1.6-0.6-1 0-1.5 0.3-0.5 0.4-0.7 1.2-0.1 0.9-0.1 2.6 0 1.4 0.2 2 0.3 0.7 1 0.9 0.8 0.2 2.3 0.2 0.6 0 1.8 0 1.2-0.1 2.6-0.1 1.3 0 2.3-0.1 1 0 1.1 0v0.9q0 0.6-0.1 1.4-0.2 0.8-0.6 1.2-0.5 0.7-2.7 0.9-2.1 0.1-6.2 0.1z"/>
</svg>